<svg width="322" height="473" viewBox="0 0 322 473" fill="none" xmlns="http://www.w3.org/2000/svg">
<path fill-rule="evenodd" clip-rule="evenodd" d="M161 0C162.5 8.99996 174.5 17.7157 191 19L161 19L161 19L131 19C147.5 17.7157 159.5 8.99997 161 0Z" fill="#F51B1B"/>
<path d="M0 57.4C0 43.9587 0 37.2381 2.61584 32.1042C4.9168 27.5883 8.58834 23.9168 13.1042 21.6158C18.2381 19 24.9587 19 38.4 19H283.6C297.041 19 303.762 19 308.896 21.6158C313.412 23.9168 317.083 27.5883 319.384 32.1042C322 37.2381 322 43.9587 322 57.4V473H0V57.4Z" fill="#F51B1B"/>
</svg>
